# xmcd
#
# Track frame offsets: 
#        150
#        28937
#        44155
#        57465
#        82842
#        94565
#        108137
#        133630
#        162255
#        175675
#        191292
#
# Disc length: 2784 seconds
#
# Revision: 4
# Processed by: cddbd v1.4PL0 Copyright (c) Steve Scherf et al.
# Submitted via: ExactAudioCopy v0.90b4
#
DISCID=870ade0b
DTITLE=Buddy Guy - A Man and The Blues (The Complete Vanguard Recordin
DTITLE=gs) Disc 1
DYEAR=1968
DGENRE=Blues
TTITLE0=A Man And The Blues
TTITLE1=I Can't Quit The Blues
TTITLE2=Money (That's What I Want)
TTITLE3=One Room Country Shack
TTITLE4=Mary Had A Little Lamb
TTITLE5=Just Playing My Axe
TTITLE6=Sweet Little Angel
TTITLE7=Worry, Worry
TTITLE8=Jam On A Monday Morning
TTITLE9=Poison Ivy
TTITLE10=You Got A Hole In Your Soul
EXTD=
EXTT0=
EXTT1=
EXTT2=
EXTT3=
EXTT4=
EXTT5=
EXTT6=
EXTT7=
EXTT8=
EXTT9=
EXTT10=
PLAYORDER=
